<?xml version="1.0" standalone="no"?>
<!DOCTYPE svg PUBLIC "-//W3C//DTD SVG 20010904//EN"
 "http://www.w3.org/TR/2001/REC-SVG-20010904/DTD/svg10.dtd">
<svg version="1.0" xmlns="http://www.w3.org/2000/svg"
 width="700.000000pt" height="700.000000pt" viewBox="0 0 700.000000 700.000000"
 preserveAspectRatio="xMidYMid meet">
<metadata>
Created by potrace 1.11, written by Peter Selinger 2001-2013
</metadata>
<g transform="translate(0.000000,700.000000) scale(0.100000,-0.100000)"
fill="#000000" stroke="none">
<path d="M3370 6980 c-114 -35 -136 -54 -488 -404 l-343 -341 401 -400 c245
-245 407 -399 418 -398 9 0 41 6 71 11 218 39 453 -77 558 -274 59 -112 76
-234 51 -370 l-11 -63 385 -384 385 -385 58 13 c54 13 192 14 240 2 155 -39
293 -150 359 -291 190 -403 -155 -844 -591 -756 -243 50 -421 269 -424 522 -1
58 17 161 31 188 7 11 -81 103 -351 372 -198 197 -362 358 -364 358 -3 0 -5
-426 -5 -947 l0 -948 56 -35 c290 -181 322 -611 63 -844 -53 -48 -164 -109
-224 -122 -69 -15 -217 -12 -281 6 -337 97 -490 487 -311 793 36 61 127 148
197 188 l59 34 1 957 0 957 -57 32 c-166 94 -274 280 -274 469 0 63 6 101 33
198 2 6 -175 189 -392 407 l-395 395 -1072 -1072 c-1002 -1003 -1074 -1077
-1102 -1138 -39 -83 -49 -132 -46 -217 2 -81 17 -138 53 -207 21 -38 395 -419
1580 -1604 854 -854 1573 -1568 1598 -1587 140 -107 324 -121 488 -38 40 21
385 361 1606 1582 855 856 1565 1568 1576 1582 32 40 73 129 83 182 11 59 8
146 -7 209 -29 116 -3 89 -1626 1712 -848 847 -1561 1557 -1586 1577 -107 87
-273 119 -400 79z"/>
</g>
</svg>
