<?xml version="1.0" encoding="UTF-8"?><svg width="64" height="64" version="1.1" viewBox="0 0 64 64" xmlns="http://www.w3.org/2000/svg" xmlns:xlink="http://www.w3.org/1999/xlink"><!--Generated by IJSVG (https://github.com/iconjar/IJSVG)--><path d="M1004.57,466.306l-447.071,-447.039l1.91676e-06,1.91237e-06c-25.7916,-25.7325 -67.5455,-25.7325 -93.3371,-3.82473e-06l-92.6331,92.7931l117.751,117.751l2.74071e-06,-9.25441e-07c41.054,-13.8625 85.5726,8.18058 99.4351,49.2346c5.54754,16.4291 5.49605,34.2333 -0.146427,50.63l113.4,113.496l2.38916e-08,-8.2855e-09c40.9227,-14.1916 85.6016,7.47828 99.7932,48.401c9.86173,28.4372 2.57874,60.0096 -18.7432,81.2534l9.77482e-07,-9.79512e-07c-30.5706,30.6341 -80.1867,30.6855 -110.821,0.114965c-0.0383608,-0.0382813 -0.0766819,-0.0766024 -0.114963,-0.114963l-2.94823e-06,-2.95402e-06c-22.3087,-22.3525 -29.0986,-55.8738 -17.2467,-85.1457l-106.2,-105.624v278.379c7.51944,3.67973 14.5909,8.67136 20.8305,14.8469l2.45557e-06,2.47847e-06c30.4331,30.717 30.4331,80.2188 -4.91113e-06,110.936l-1.3052e-06,1.30522e-06c-30.7395,30.7401 -80.5785,30.7406 -111.319,0.00110563c-0.000369417,-0.00036941 -0.000738831,-0.000738823 -0.00110824,-0.00110824l-7.93881e-06,-7.91015e-06c-30.6076,-30.4971 -30.6971,-80.0321 -0.200081,-110.64c0.0665783,-0.0668195 0.133277,-0.133519 0.200097,-0.200097c7.77542,-7.67943 16.5108,-13.471 25.8221,-17.3107v-281.099l2.35994e-06,9.71028e-07c-9.58743,-3.94487 -18.2904,-9.76496 -25.5981,-17.1187l2.7383e-06,2.72932e-06c-22.5487,-22.4747 -29.2294,-56.3718 -16.8948,-85.7217l-115.703,-116.247l-306.569,306.377c-25.5981,25.8221 -25.5981,67.579 0,93.4011l447.103,446.975l1.20022e-06,1.20047e-06c25.7512,25.7567 67.5067,25.761 93.2633,0.00978427c0.00326256,-0.00326188 0.00652479,-0.0065241 0.00978667,-0.00978667l444.991,-444.991l1.91077e-06,-1.90535e-06c25.7655,-25.6924 25.8248,-67.4072 0.132376,-93.1727c-0.0440639,-0.0441893 -0.0881905,-0.0883159 -0.13238,-0.13238Z" transform="scale(0.0625)" fill="#F14E32"></path></svg>